<svg
    viewBox="0 0 1518 1024"
    version="1.1"
    xmlns="http://www.w3.org/2000/svg"
    width="200"
    height="200"
>
    <path
        d="M654.601481 650.353778c46.383407-50.896593 74.638222-118.670222 74.638222-192.967111 0-158.378667-128.379259-286.72-286.757926-286.72s-286.757926 128.379259-286.757926 286.72c0 74.296889 28.254815 142.070519 74.638222 192.967111-126.407111 73.234963-211.399111 209.957926-211.399111 366.592l0 0.606815 52.944593 0 0-0.606815c0-50.024296 9.822815-98.531556 29.127111-144.232296 18.697481-44.107852 45.359407-83.740444 79.416889-117.797926 27.154963-27.154963 57.799111-49.569185 91.515259-67.053037 47.634963 35.271111 106.647704 56.206222 170.552889 56.206222 63.905185 0 122.917926-20.935111 170.552889-56.206222 33.716148 17.483852 64.32237 39.860148 91.477333 67.053037 34.057481 34.057481 60.795259 73.690074 79.416889 117.797926 19.342222 45.624889 29.127111 94.132148 29.127111 144.232296l0 0.606815 52.944593 0 0-0.606815C866.000593 860.311704 781.046519 723.664593 654.601481 650.353778M442.519704 691.2c-31.592296 0-62.198519-6.181926-90.94637-18.356148-27.799704-11.719111-52.868741-28.672-74.372741-50.100148-21.541926-21.541926-38.381037-46.497185-50.138074-74.372741C214.888296 519.585185 208.70637 488.978963 208.70637 457.386667c0-31.592296 6.181926-62.198519 18.356148-90.94637C238.78163 338.640593 255.734519 313.571556 277.200593 292.02963c21.504-21.541926 46.497185-38.381037 74.372741-50.138074 28.747852-12.174222 59.392-18.318222 90.94637-18.318222 31.592296 0 62.198519 6.144 90.984296 18.318222 27.799704 11.757037 52.830815 28.709926 74.372741 50.138074 21.541926 21.541926 38.381037 46.497185 50.138074 74.372741 12.174222 28.747852 18.356148 59.392 18.356148 90.94637 0 31.592296-6.181926 62.198519-18.356148 90.94637-11.719111 27.799704-28.672 52.868741-50.138074 74.372741-21.504 21.504-46.459259 38.343111-74.372741 50.100148C504.718222 685.018074 474.112 691.2 442.519704 691.2"
        fill="#22a59c"
    />
    <path d="M1133.37837 244.963556l-152.689778 188.340148 152.500148 0 0 46.231704-238.629926 0 0-31.516444 155.382519-187.505778-143.815111 0L906.126222 214.281481l227.290074 0L1133.416296 244.963556z" />
    <path d="M1490.526815 46.610963l-180.944593 223.232 180.754963 0L1490.337185 324.645926l-282.851556 0L1207.48563 287.288889l184.13037-222.245926-170.439111 0L1221.176889 10.277926l269.387852 0L1490.564741 46.610963z" />
</svg>
